<?xml version="1.0" encoding="UTF-8"?>
<svg version="1.1" xmlns="http://www.w3.org/2000/svg" width="193" height="161">
<path d="M0 0 C3.58131194 2.78263868 6.81681389 5.77313381 10 9 C10.72058594 9.71027344 11.44117188 10.42054687 12.18359375 11.15234375 C25.27074317 24.83323908 28.43943269 41.58150232 28.2109375 59.75 C27.71176922 77.1284511 18.48287925 93.54079519 5.9609375 105.3828125 C-9.13880805 117.8355907 -26.71869365 122.66718062 -46 121 C-63.4730433 118.62389126 -77.96063309 109.94675626 -89.12890625 96.421875 C-90.88656516 94.00746664 -92.4729331 91.56563659 -94 89 C-94.45890625 88.24589844 -94.9178125 87.49179688 -95.390625 86.71484375 C-103.54939811 71.99464769 -105.31883232 54.54352605 -101.4375 38.3125 C-95.63104775 19.28023984 -84.81999965 5.14566887 -67.28515625 -4.4921875 C-45.32874034 -15.13963166 -20.39197642 -13.46189068 0 0 Z M-41 17 C-41 30.86 -41 44.72 -41 59 C-27.14 59 -13.28 59 1 59 C1 57.02 1 55.04 1 53 C-0.02472412 52.97494385 -1.04944824 52.9498877 -2.10522461 52.92407227 C-5.89409676 52.83015516 -9.68277881 52.72989683 -13.47143555 52.62768555 C-15.11364303 52.58427703 -16.75589739 52.54260642 -18.39819336 52.50268555 C-20.75388745 52.4451256 -23.10934428 52.38139108 -25.46484375 52.31640625 C-26.20339096 52.29969376 -26.94193817 52.28298126 -27.7028656 52.26576233 C-32.88612829 52.11387171 -32.88612829 52.11387171 -34 51 C-34.15988491 48.48119483 -34.25934225 45.98657734 -34.31640625 43.46484375 C-34.33718735 42.71159317 -34.35796844 41.95834259 -34.37937927 41.18226624 C-34.44495425 38.7674401 -34.50379621 36.35250202 -34.5625 33.9375 C-34.6056777 32.30402471 -34.64929173 30.6705609 -34.69335938 29.03710938 C-34.80064362 25.02485536 -34.90188821 21.01248836 -35 17 C-36.98 17 -38.96 17 -41 17 Z M-65 19 C-65.77407753 23.07445382 -66.10315656 26.86158861 -66.02172852 31.00537109 C-66.00130493 32.18220459 -65.98088135 33.35903809 -65.95983887 34.5715332 C-65.9331311 35.79316162 -65.90642334 37.01479004 -65.87890625 38.2734375 C-65.85824097 39.4075708 -65.83757568 40.5417041 -65.81628418 41.71020508 C-65.73773867 45.93192027 -65.64954813 50.15345157 -65.5625 54.375 C-65.376875 63.82125 -65.19125 73.2675 -65 83 C-44.21 83 -23.42 83 -2 83 C-1.67 81.35 -1.34 79.7 -1 78 C-2.67537122 76.32462878 -4.7381128 76.84085378 -7.03881836 76.81054688 C-8.6507029 76.78547058 -8.6507029 76.78547058 -10.29515076 76.7598877 C-11.46489944 76.74631226 -12.63464813 76.73273682 -13.83984375 76.71875 C-15.62848595 76.69113586 -15.62848595 76.69113586 -17.45326233 76.66296387 C-21.28128962 76.60399385 -25.10936235 76.55127505 -28.9375 76.5 C-33.96754668 76.43253338 -38.99744425 76.35884236 -44.02734375 76.28125 C-45.19506821 76.26767456 -46.36279266 76.25409912 -47.56590271 76.2401123 C-49.18251549 76.21503601 -49.18251549 76.21503601 -50.83178711 76.18945312 C-52.25955727 76.17066101 -52.25955727 76.17066101 -53.71617126 76.15148926 C-56 76 -56 76 -58 75 C-58.33 56.52 -58.66 38.04 -59 19 C-60.98 19 -62.96 19 -65 19 Z " fill="#81DE91" transform="translate(134,25)"/>
<path d="M0 0 C0.33 0 0.66 0 1 0 C2.03868754 28.54313348 2.03868754 28.54313348 -4 39 C-4.51949219 39.94359375 -5.03898437 40.8871875 -5.57421875 41.859375 C-15.41534725 58.46771307 -29.22298074 68.90431676 -47.515625 74.8125 C-55.46610742 76.75955692 -63.8747723 76.16966833 -72 76 C-72 75.34 -72 74.68 -72 74 C-73.65 74 -75.3 74 -77 74 C-73.15219432 71.43479622 -72.47393612 72.21509893 -68 73 C-65.93962772 73.12536657 -63.87619523 73.20513706 -61.8125 73.25 C-60.78769531 73.27578125 -59.76289062 73.3015625 -58.70703125 73.328125 C-55.57936132 72.94901349 -55.01169167 72.28734621 -53 70 C-49.5945464 69.34510508 -46.27262695 69.01603688 -42.8125 68.8125 C-34.71820355 67.087486 -26.86150374 62.86150374 -21 57 C-20.30062468 55.68352881 -19.63270867 54.34977849 -19 53 C-17.37253306 51.29503463 -15.71108689 49.62102968 -14 48 C-14.33 47.34 -14.66 46.68 -15 46 C-14.39542969 45.77957031 -13.79085937 45.55914062 -13.16796875 45.33203125 C-10.27784851 43.55629972 -9.63943011 41.78087965 -8.3125 38.6875 C-7.89613281 37.74261719 -7.47976562 36.79773438 -7.05078125 35.82421875 C-5.92201369 33.06288901 -5.92201369 33.06288901 -5.54296875 30.26953125 C-5 28 -5 28 -2 26 C-0.60659482 20.71006658 -0.67446891 15.07140029 -0.4375 9.625 C-0.37272461 8.23474609 -0.37272461 8.23474609 -0.30664062 6.81640625 C-0.20123814 4.54439706 -0.09911394 2.27229075 0 0 Z " fill="#91D599" transform="translate(160,70)"/>
<path d="M0 0 C11.750454 1.40662369 20.54230162 10.40566951 28 19 C34.55753851 27.72310781 39.82461262 36.86772967 39 48 C38.34 48 37.68 48 37 48 C36.34 44.37 35.68 40.74 35 37 C34.01 36.67 33.02 36.34 32 36 C31.67 33.36 31.34 30.72 31 28 C30.01 27.67 29.02 27.34 28 27 C26.97265625 25.2578125 26.97265625 25.2578125 26.0625 23.125 C24.49291899 19.79558574 23.31960597 17.81069416 20 16 C19.113125 15.731875 18.22625 15.46375 17.3125 15.1875 C16.549375 14.795625 15.78625 14.40375 15 14 C14.1875 10.875 14.1875 10.875 14 8 C13.401875 7.87625 12.80375 7.7525 12.1875 7.625 C10 7 10 7 7 5 C5.0103005 4.60986284 3.00980131 4.26797351 1 4 C0.67 2.68 0.34 1.36 0 0 Z " fill="#92D8A1" transform="translate(121,20)"/>
<path d="M0 0 C1.6415049 3.2830098 0.51888624 6.42545033 0 10 C0.66 10 1.32 10 2 10 C2 10.99 2 11.98 2 13 C2.66 13.33 3.32 13.66 4 14 C4.6328125 16.28515625 4.6328125 16.28515625 5.125 19.0625 C5.29257812 19.98160156 5.46015625 20.90070313 5.6328125 21.84765625 C5.75398438 22.55792969 5.87515625 23.26820312 6 24 C6.63679688 24.12375 7.27359375 24.2475 7.9296875 24.375 C10 25 10 25 11.125 27 C11.41375 27.66 11.7025 28.32 12 29 C12.66 29.33 13.32 29.66 14 30 C13.67 31.32 13.34 32.64 13 34 C6.47097156 31.46570607 3.45624194 24.14174646 0.66015625 18.109375 C-1.51690856 12.5621209 -2.64925411 7.95149604 -2 2 C-1.34 1.34 -0.68 0.68 0 0 Z " fill="#8ED296" transform="translate(35,88)"/>
<path d="M0 0 C4.43664863 0.55000533 8.90309123 0.66815712 13.3671875 0.85595703 C14.33269531 0.89914063 15.29820313 0.94232422 16.29296875 0.98681641 C18.65093175 1.09187416 21.00898166 1.19402617 23.3671875 1.29345703 C21.3671875 3.29345703 21.3671875 3.29345703 17.46826172 3.52050781 C15.78609957 3.52019044 14.10391731 3.50885099 12.421875 3.48876953 C11.5368631 3.48593964 10.6518512 3.48310974 9.74002075 3.48019409 C6.90727338 3.46897943 4.07483966 3.44387274 1.2421875 3.41845703 C-0.67577669 3.40842888 -2.59374583 3.39930275 -4.51171875 3.39111328 C-9.21887126 3.36903592 -13.92578866 3.33449748 -18.6328125 3.29345703 C-18.9628125 2.63345703 -19.2928125 1.97345703 -19.6328125 1.29345703 C-18.87355469 1.23287109 -18.11429687 1.17228516 -17.33203125 1.10986328 C-16.33816406 1.02607422 -15.34429687 0.94228516 -14.3203125 0.85595703 C-13.33417969 0.77474609 -12.34804687 0.69353516 -11.33203125 0.60986328 C-2.76503573 -0.39437208 -2.76503573 -0.39437208 0 0 Z " fill="#8CDD9D" transform="translate(112.6328125,84.70654296875)"/>
<path d="M0 0 C2.35953094 2.35953094 2.49141413 3.77895617 3 7 C2.01 7.33 1.02 7.66 0 8 C-0.33 11.3 -0.66 14.6 -1 18 C-1.66 18 -2.32 18 -3 18 C-3 23.94 -3 29.88 -3 36 C-3.66 35.67 -4.32 35.34 -5 35 C-5.55976826 22.29637025 -4.02873408 12.08620224 0 0 Z " fill="#91D69B" transform="translate(36,53)"/>
<path d="M0 0 C0.33 0 0.66 0 1 0 C1.02505615 0.96413818 1.0501123 1.92827637 1.07592773 2.92163086 C1.16985306 6.48687842 1.27010939 10.05192433 1.37231445 13.61694336 C1.41571985 15.16214289 1.45739071 16.70739214 1.49731445 18.25268555 C1.55488199 20.46939096 1.61861424 22.6858448 1.68359375 24.90234375 C1.70866249 25.94454323 1.70866249 25.94454323 1.73423767 27.00779724 C1.56502856 30.28762029 1.56502856 30.28762029 3 33 C5.44608998 33.15980437 7.86731058 33.25929447 10.31640625 33.31640625 C11.41298805 33.3475779 11.41298805 33.3475779 12.53172302 33.37937927 C14.87521656 33.44495024 17.21882539 33.50379432 19.5625 33.5625 C21.14779855 33.60567808 22.73308529 33.64929213 24.31835938 33.69335938 C28.21212037 33.8006392 32.10599772 33.9018849 36 34 C36 34.33 36 34.66 36 35 C24.12 35 12.24 35 0 35 C-1.1802738 31.4591786 -1.0238386 28.37644627 -0.87890625 24.70703125 C-0.85529526 24.00100266 -0.83168427 23.29497406 -0.80735779 22.56755066 C-0.73087055 20.31565493 -0.64678253 18.06411613 -0.5625 15.8125 C-0.50926432 14.28452259 -0.45652401 12.75652784 -0.40429688 11.22851562 C-0.27527576 7.48545165 -0.13943788 3.74268981 0 0 Z " fill="#A1EAB1" transform="translate(100,42)"/>
<path d="M0 0 C0.33 0 0.66 0 1 0 C2.03194763 28.35792096 2.03194763 28.35792096 -4 39 C-4.66 39 -5.32 39 -6 39 C-5.91306859 37.20741442 -5.80489496 35.41584856 -5.6875 33.625 C-5.60048828 32.12839844 -5.60048828 32.12839844 -5.51171875 30.6015625 C-5.25841797 29.31378906 -5.25841797 29.31378906 -5 28 C-4.01 27.34 -3.02 26.68 -2 26 C-0.60659482 20.71006658 -0.67446891 15.07140029 -0.4375 9.625 C-0.39431641 8.69816406 -0.35113281 7.77132812 -0.30664062 6.81640625 C-0.20123814 4.54439706 -0.09911394 2.27229075 0 0 Z " fill="#98DEA2" transform="translate(160,70)"/>
<path d="M0 0 C1.6415049 3.2830098 0.51888624 6.42545033 0 10 C0.66 10 1.32 10 2 10 C2 10.99 2 11.98 2 13 C2.66 13.33 3.32 13.66 4 14 C4.40729228 16.32156597 4.74438677 18.6568787 5 21 C0.56029866 17.02763564 -1.65546022 13.92188894 -2.18359375 7.91015625 C-2.25 5.75 -2.25 5.75 -2 2 C-1.34 1.34 -0.68 0.68 0 0 Z " fill="#92DC9D" transform="translate(35,88)"/>
<path d="M0 0 C0.33 0.99 0.66 1.98 1 3 C-0.109375 4.6484375 -0.109375 4.6484375 -1.75 6.375 C-3.72513333 8.52803218 -5.19473946 10.33177834 -6.6875 12.875 C-8 15 -8 15 -11 16 C-10.52773919 11.31112485 -8.69435491 9.12631183 -5.5 5.75 C-4.6853125 4.87859375 -3.870625 4.0071875 -3.03125 3.109375 C-1 1 -1 1 0 0 Z " fill="#8BCD94" transform="translate(53,30)"/>
<path d="M0 0 C0 0.33 0 0.66 0 1 C-1.98 1.33 -3.96 1.66 -6 2 C-6 2.33 -6 2.66 -6 3 C-10.95 3 -15.9 3 -21 3 C-21.33 2.34 -21.66 1.68 -22 1 C-21.24074219 0.93941406 -20.48148437 0.87882812 -19.69921875 0.81640625 C-18.70535156 0.73261719 -17.71148437 0.64882812 -16.6875 0.5625 C-15.70136719 0.48128906 -14.71523437 0.40007812 -13.69921875 0.31640625 C-4.87016129 -0.71854839 -4.87016129 -0.71854839 0 0 Z " fill="#87D596" transform="translate(115,85)"/>
<path d="M0 0 C2.25 2.5 2.25 2.5 4 5 C3.01 5.66 2.02 6.32 1 7 C0.67 6.01 0.34 5.02 0 4 C-2.97 3.67 -5.94 3.34 -9 3 C-9 3.99 -9 4.98 -9 6 C-9.66 6 -10.32 6 -11 6 C-10.875 4.125 -10.875 4.125 -10 2 C-6.40349908 0.40155515 -3.96602757 0 0 0 Z " fill="#8FDE9D" transform="translate(100,38)"/>
<path d="M0 0 C0.721875 0.268125 1.44375 0.53625 2.1875 0.8125 C2.1875 2.4625 2.1875 4.1125 2.1875 5.8125 C1.1975 6.1425 0.2075 6.4725 -0.8125 6.8125 C-1.1425 6.1525 -1.4725 5.4925 -1.8125 4.8125 C-3.7925 4.8125 -5.7725 4.8125 -7.8125 4.8125 C-3.50480769 -0.23365385 -3.50480769 -0.23365385 0 0 Z " fill="#89E397" transform="translate(61.8125,25.1875)"/>
<path d="M0 0 C-3.46044155 3.02788635 -7.52249221 4.98556464 -12 6 C-14.25 5.578125 -14.25 5.578125 -16 5 C-14.02 4.67 -12.04 4.34 -10 4 C-10 3.34 -10 2.68 -10 2 C-6.37626474 -0.79545292 -4.37834956 -1.37605272 0 0 Z " fill="#8DCD96" transform="translate(127,138)"/>
<path d="M0 0 C0.74958984 0.10441406 1.49917969 0.20882812 2.27148438 0.31640625 C4.11999204 0.5754328 5.96647432 0.84883966 7.8125 1.125 C7.8125 1.455 7.8125 1.785 7.8125 2.125 C5.58340129 2.15214735 3.35420633 2.17146254 1.125 2.1875 C-0.11636719 2.19910156 -1.35773438 2.21070313 -2.63671875 2.22265625 C-5.64985454 2.13978673 -8.27025339 1.83339449 -11.1875 1.125 C-7.23979304 -1.50680464 -4.44769851 -0.6758948 0 0 Z " fill="#9CE4A8" transform="translate(94.1875,142.875)"/>
<path d="M0 0 C9.17286652 1.17286652 9.17286652 1.17286652 12.625 4.625 C13.07875 5.40875 13.5325 6.1925 14 7 C10.2397015 6.41892368 7.46964968 5.34800504 4.1875 3.4375 C3.39730469 2.98246094 2.60710938 2.52742187 1.79296875 2.05859375 C1.20128906 1.70925781 0.60960937 1.35992187 0 1 C0 0.67 0 0.34 0 0 Z " fill="#81BD92" transform="translate(61,135)"/>
<path d="M0 0 C-1.32 0.33 -2.64 0.66 -4 1 C-4 1.66 -4 2.32 -4 3 C-6.31 3.33 -8.62 3.66 -11 4 C-11 3.34 -11 2.68 -11 2 C-3.57142857 -1.57142857 -3.57142857 -1.57142857 0 0 Z " fill="#90E19B" transform="translate(82,18)"/>
<path d="M0 0 C2.39591038 -0.02712351 4.79150957 -0.0468982 7.1875 -0.0625 C7.86103516 -0.07087891 8.53457031 -0.07925781 9.22851562 -0.08789062 C12.95434131 -0.10606538 16.3788042 0.10700608 20 1 C16.80594791 3.12936806 16.50812339 3.23418211 12.98828125 2.7578125 C12.23095703 2.66113281 11.47363281 2.56445312 10.69335938 2.46484375 C9.51483398 2.29662109 9.51483398 2.29662109 8.3125 2.125 C7.51521484 2.02058594 6.71792969 1.91617187 5.89648438 1.80859375 C3.92958889 1.54948177 1.96458233 1.27610346 0 1 C0 0.67 0 0.34 0 0 Z " fill="#9AE4A7" transform="translate(90,15)"/>
<path d="M0 0 C0.33 0.66 0.66 1.32 1 2 C1.99 2.33 2.98 2.66 4 3 C4 3.66 4 4.32 4 5 C3.01 5 2.02 5 1 5 C1.33 5.66 1.66 6.32 2 7 C-0.62187494 5.95125002 -1.79371361 5.35068687 -3.25 2.875 C-3.4975 2.25625 -3.745 1.6375 -4 1 C-2 0 -2 0 0 0 Z " fill="#89D391" transform="translate(59,128)"/>
<path d="M0 0 C0.33 0.66 0.66 1.32 1 2 C-0.25 4.5625 -0.25 4.5625 -2 7 C-2.99 7.33 -3.98 7.66 -5 8 C-4.64950425 4.75791433 -4.43778819 3.38472296 -1.9375 1.1875 C-1.298125 0.795625 -0.65875 0.40375 0 0 Z " fill="#93DB99" transform="translate(47,38)"/>
<path d="M0 0 C0 0.66 0 1.32 0 2 C1.65 2 3.3 2 5 2 C5 2.33 5 2.66 5 3 C3.39504433 2.88557539 1.79101881 2.75805306 0.1875 2.625 C-0.70582031 2.55539063 -1.59914063 2.48578125 -2.51953125 2.4140625 C-5 2 -5 2 -8 0 C-4.94736336 -0.98120464 -3.05263664 -0.98120464 0 0 Z " fill="#85C797" transform="translate(83,142)"/>
<path d="M0 0 C-0.33 0.99 -0.66 1.98 -1 3 C-5.29 2.67 -9.58 2.34 -14 2 C-14 1.67 -14 1.34 -14 1 C-4.58997722 -0.14806378 -4.58997722 -0.14806378 0 0 Z " fill="#8DDC99" transform="translate(134,109)"/>
<path d="M0 0 C3.465 1.98 3.465 1.98 7 4 C6.67 5.32 6.34 6.64 6 8 C4.99403703 7.0479279 3.99538437 6.08812654 3 5.125 C2.443125 4.59132813 1.88625 4.05765625 1.3125 3.5078125 C0 2 0 2 0 0 Z " fill="#80C18B" transform="translate(47,122)"/>
<path d="M0 0 C6.93 0.495 6.93 0.495 14 1 C14 1.33 14 1.66 14 2 C12.41870971 2.22331199 10.83478911 2.42804644 9.25 2.625 C7.92742187 2.79902344 7.92742187 2.79902344 6.578125 2.9765625 C3.77140122 3.00207817 2.36615134 2.44843844 0 1 C0 0.67 0 0.34 0 0 Z " fill="#8FDD9B" transform="translate(66,109)"/>
<path d="M0 0 C0.66 0.33 1.32 0.66 2 1 C0.3125 3.0625 0.3125 3.0625 -2 5 C-4.75 4.75 -4.75 4.75 -7 4 C-6.1028125 3.566875 -6.1028125 3.566875 -5.1875 3.125 C-2.80672208 1.95257974 -2.80672208 1.95257974 0 0 Z " fill="#98D4A0" transform="translate(131,133)"/>
<path d="M0 0 C0.66 0.33 1.32 0.66 2 1 C1.67 2.32 1.34 3.64 1 5 C-0.98 5 -2.96 5 -5 5 C-3.35 3.35 -1.7 1.7 0 0 Z " fill="#86C996" transform="translate(59,25)"/>
<path d="M0 0 C4.455 0.99 4.455 0.99 9 2 C5.16380575 2.95904856 3.67568464 2.91892116 0 2 C0 1.34 0 0.68 0 0 Z " fill="#97E1A6" transform="translate(111,17)"/>
</svg>
